HIERARCHY
ROOT Hips
{
	OFFSET 0.00 0.00 0.00
	CHANNELS 6 Xposition Yposition Zposition Xrotation Yrotation Zrotation
	JOINT Spine
	{
		OFFSET 0.00000 7.53995 0.00000
		CHANNELS 3 Xrotation Yrotation Zrotation
		JOINT Head
		{
			OFFSET 0.00000 15.09381 0.00000
			CHANNELS 3 Xrotation Yrotation Zrotation
			End Site
			{
				OFFSET 0.00000 4.52755 0.00000
			}
		}
		JOINT LeftShoulder
		{
			OFFSET 0.00000 9.73893 0.00000
			CHANNELS 3 Xrotation Yrotation Zrotation
			JOINT LeftArm
			{
				OFFSET 7.08401 0.00000 0.00000
				CHANNELS 3 Xrotation Yrotation Zrotation
				JOINT LeftForeArm
				{
					OFFSET 10.25932 0.00000 0.00000
					CHANNELS 3 Yrotation Zrotation Xrotation
					JOINT LeftHand
					{
						OFFSET 9.89698 0.00000 0.00000
						CHANNELS 3 Xrotation Yrotation Zrotation
						JOINT LeftHandThumb1
						{
							OFFSET 0.00000 0.00000 0.00000
							CHANNELS 3 Xrotation Zrotation Yrotation
							End Site
							{
								OFFSET 0.00000 0.00000 3.93700
							}
						}
						End Site
						{
							OFFSET 3.93700 0.00000 0.00000
						}
					}
				}
			}
		}
		JOINT RightShoulder
		{
			OFFSET 0.00000 9.73893 0.00000
			CHANNELS 3 Xrotation Yrotation Zrotation
			JOINT RightArm
			{
				OFFSET -7.08401 0.00000 0.00000
				CHANNELS 3 Xrotation Yrotation Zrotation
				JOINT RightForeArm
				{
					OFFSET -10.25932 0.00000 0.00000
					CHANNELS 3 Yrotation Zrotation Xrotation
					JOINT RightHand
					{
						OFFSET -9.89698 0.00000 0.00000
						CHANNELS 3 Xrotation Yrotation Zrotation
						JOINT RightHandThumb1
						{
							OFFSET 0.00000 0.00000 0.00000
							CHANNELS 3 Xrotation Zrotation Yrotation
							End Site
							{
								OFFSET 0.00000 0.00000 3.93700
							}
						}
						End Site
						{
							OFFSET -3.93700 0.00000 0.00000
						}
					}
				}
			}
		}
	}
	JOINT LeftUpLeg
	{
		OFFSET 3.34548 0.00000 0.00000
		CHANNELS 3 Xrotation Yrotation Zrotation
		JOINT LeftLeg
		{
			OFFSET 0.00000 -19.11473 0.00000
			CHANNELS 3 Xrotation Yrotation Zrotation
			JOINT LeftFoot
			{
				OFFSET 0.00000 -16.04560 0.00000
				CHANNELS 3 Xrotation Yrotation Zrotation
				JOINT LeftToeBase
				{
					OFFSET 0.00000 -1.43467 5.35428
					CHANNELS 3 Xrotation Yrotation Zrotation
					End Site
					{
						OFFSET 0.00000 0.00000 2.95275
					}
				}
			}
		}
	}
	JOINT RightUpLeg
	{
		OFFSET -3.34548 0.00000 0.00000
		CHANNELS 3 Xrotation Yrotation Zrotation
		JOINT RightLeg
		{
			OFFSET 0.00000 -19.11473 0.00000
			CHANNELS 3 Xrotation Yrotation Zrotation
			JOINT RightFoot
			{
				OFFSET 0.00000 -16.04560 0.00000
				CHANNELS 3 Xrotation Yrotation Zrotation
				JOINT RightToeBase
				{
					OFFSET 0.00000 -1.43467 5.35428
					CHANNELS 3 Xrotation Yrotation Zrotation
					End Site
					{
						OFFSET 0.00000 0.00000 2.95275
					}
				}
			}
		}
	}
}
MOTION
Frames:	7
Frame Time: 0.008333
1.6453 37.0320 -1.2679 12.5214 3.4819 0.3824 -13.4652 -4.5830 -3.5678 -0.6352 -1.4877 -0.0001 -1.6165 8.6401 18.9034 -28.1343 10.6335 -18.5217 -17.8156 -0.0000 -167.7115 -1.2600 -7.8052 -9.1995 32.8623 0.0000 24.3270 -18.6270 -2.8639 -15.2439 -19.2082 -17.0047 21.7682 7.1176 0.0000 21.9738 4.4003 -18.6937 13.5007 33.1476 -0.0000 -26.2537 -11.6899 5.2231 0.8928 9.6775 -0.0000 -0.0000 -13.9350 3.0918 -4.9763 6.8497 -0.0000 -0.0000 -9.2963 -8.8905 -4.0642 6.7946 -0.0000 -0.0000 -15.1440 -11.6486 15.5715 14.0349 -0.0000 -0.0000
1.6531 37.0327 -1.2668 12.5375 3.4651 0.3949 -13.4757 -4.6142 -3.5730 -0.6379 -1.4831 0.0121 -1.6093 8.6697 18.9083 -28.1336 10.6483 -18.5314 -17.8306 -0.0000 -167.7357 -1.2769 -7.8851 -9.2289 32.8623 0.0000 24.3270 -18.6299 -2.8421 -15.2361 -19.2016 -16.9771 21.7493 7.1356 0.0000 21.9388 4.3942 -18.7383 13.4527 33.1476 -0.0000 -26.2537 -11.6740 5.1839 0.8706 9.6251 -0.0000 -0.0000 -13.9098 3.1317 -5.0234 6.8362 -0.0000 -0.0000 -9.3122 -8.8904 -4.0869 6.7833 -0.0000 -0.0000 -15.1226 -11.6243 15.5608 14.0121 -0.0000 -0.0000
1.6604 37.0333 -1.2649 12.5417 3.4313 0.4032 -13.4708 -4.6141 -3.5697 -0.6454 -1.4976 0.0257 -1.6086 8.6799 18.9067 -28.1485 10.6687 -18.5294 -17.8471 0.0000 -167.7259 -1.2857 -7.9315 -9.2381 32.8623 0.0000 24.3270 -18.6325 -2.8289 -15.2488 -19.1999 -16.9802 21.7471 7.1670 0.0000 21.9136 4.4024 -18.8808 13.3824 33.1476 -0.0000 -26.2537 -11.6687 5.2167 0.8582 9.6206 -0.0000 -0.0000 -13.9049 3.1227 -5.0106 6.8374 -0.0000 -0.0000 -9.3156 -8.8679 -4.1009 6.7747 -0.0000 -0.0000 -15.1146 -11.6234 15.5713 14.0250 -0.0000 -0.0000
1.6670 37.0335 -1.2624 12.5469 3.3969 0.4114 -13.4731 -4.6073 -3.5667 -0.6262 -1.5138 0.0463 -1.6012 8.6923 18.8908 -28.1772 10.6785 -18.5114 -17.8653 0.0000 -167.7146 -1.2660 -7.8955 -9.1394 32.8623 0.0000 24.3270 -18.6144 -2.8306 -15.2537 -19.2125 -16.9621 21.7393 7.1886 0.0000 21.8868 4.3695 -18.8304 13.3187 33.1476 -0.0000 -26.2537 -11.6593 5.2350 0.8462 9.6089 -0.0000 -0.0000 -13.9080 3.1365 -4.9958 6.8859 -0.0000 -0.0000 -9.3161 -8.8411 -4.1131 6.7628 -0.0000 -0.0000 -15.1081 -11.6254 15.6081 14.0494 -0.0000 -0.0000
1.6738 37.0342 -1.2609 12.5496 3.3431 0.4267 -13.4673 -4.5864 -3.5720 -0.6281 -1.5198 0.0715 -1.6064 8.6988 18.8831 -28.1594 10.6763 -18.4914 -17.8661 0.0000 -167.7215 -1.2572 -7.8530 -9.1248 32.8623 0.0000 24.3270 -18.6219 -2.8153 -15.2497 -19.1985 -16.9533 21.7296 7.2038 0.0000 21.9669 4.3064 -18.7752 13.1682 33.1476 -0.0000 -26.2537 -11.6460 5.2753 0.8304 9.5979 -0.0000 -0.0000 -13.8938 3.1451 -4.9915 6.8221 -0.0000 -0.0000 -9.3212 -8.7893 -4.1294 6.7568 -0.0000 -0.0000 -15.0953 -11.6136 15.5765 14.0422 -0.0000 -0.0000
1.6813 37.0347 -1.2587 12.5513 3.3056 0.4413 -13.4621 -4.5762 -3.5758 -0.6315 -1.5447 0.0891 -1.5988 8.7020 18.8736 -28.1581 10.6769 -18.4790 -17.8543 -0.0000 -167.7344 -1.2421 -7.7621 -9.1201 32.8623 0.0000 24.3270 -18.6097 -2.8073 -15.2473 -19.2127 -16.9478 21.7121 7.2277 0.0000 21.8778 4.3120 -18.7897 13.1754 33.1476 -0.0000 -26.2537 -11.6304 5.3040 0.8105 9.5818 -0.0000 -0.0000 -13.8847 3.1522 -5.0071 6.8071 -0.0000 -0.0000 -9.3237 -8.7731 -4.1493 6.7499 -0.0000 -0.0000 -15.0865 -11.6055 15.5897 14.0378 -0.0000 -0.0000
1.6884 37.0348 -1.2574 12.5597 3.2748 0.4508 -13.4634 -4.5767 -3.5757 -0.6334 -1.5445 0.1123 -1.6234 8.6776 18.8788 -28.0799 10.6975 -18.4720 -17.8565 -0.0000 -167.7956 -1.2587 -7.7999 -9.1963 32.8623 0.0000 24.3270 -18.6075 -2.7946 -15.2568 -19.2249 -16.9600 21.7099 7.2564 -0.0000 21.8833 4.2947 -18.7472 13.1518 33.1476 -0.0000 -26.2537 -11.6312 5.3122 0.7973 9.5826 -0.0000 -0.0000 -13.8838 3.1583 -4.9952 6.8070 -0.0000 -0.0000 -9.3308 -8.7484 -4.1651 6.7378 -0.0000 -0.0000 -15.0682 -11.5912 15.5907 14.0031 -0.0000 -0.0000
